Patient4_TMGait_0pt3_02_left_16_EMG.mot
version=1
nRows=26
nColumns=33
inDegrees=no
endheader
time	1LAddLong	2LGlutMax	3LGlutMed	4LIliopsoas	5LSemiMemb	6LBicFemLong	7LRecFem	8LVastMed	9LVastLat	10LGasMed	11LTibAnt	12lTibPost	13LPeroneusLong	14LSol	15LExtDigLong	16LFlexDigLong	17RAddLong	18RGlutMax	19RGlutMed	20RIliopsoas	21RSemiMemb	22RBicFemLong	23RRecFem	24RVastMed	25RVastLat	26RGasMed	27RTibAnt	28RTibPost	29RPeroneusLong	30RSol	31RExtDigLong	32RFlexDigLong
32.28	0.018463	-0.048065	0.077057	0.00824	0.013733	0.010071	0.000763	0.006104	-0.007782	-0.16037	-0.034027	0.008087	0.21576	-0.077667	-0.018158	-0.024719	-0.004578	-0.066223	0.25391	-0.060883	0.083771	-0.045624	-0.054626	0.18158	0.22644	-0.005493	-0.46616	-0.007172	0.070801	-0.057983	-0.009766	-0.000458
32.281	0.004425	-0.042419	0.057831	0.006409	0.014648	-0.046539	-0.02121	0.002899	-0.047607	-0.079651	-0.025482	0.015411	0.1532	-0.20447	0.081635	-0.01236	-0.00885	-0.057526	0.29037	-0.037537	-0.024414	-0.036316	-0.014191	0.14099	0.21576	-0.00061	-0.69733	-0.001221	0.10483	-0.026093	-0.00412	-0.004425
32.282	0.003815	-0.025482	-0.018921	0.005646	0.001678	-0.072937	-0.047302	0.014801	0.021973	0.053558	-0.024261	0.003357	0.11688	-0.31525	0.13092	-0.008087	-0.004425	-0.039215	0.15549	0.015869	-0.12421	-0.029297	-0.023651	0.11826	0.15213	-0.00473	-0.70252	-0.007477	0.037537	0.010529	-0.00351	0.000153
32.283	0.025787	-0.007782	-0.062408	0.013123	0.014801	-0.049591	-0.05661	-0.003357	0.31418	0.074768	-0.026855	0.00824	0.13611	-0.25726	0.13657	0.003204	-0.002289	-0.028381	0.0914	0.099335	-0.053406	-0.043182	0.002747	0.068359	0.037994	-0.003662	-0.34607	-0.006561	0.025024	0.010986	0.00061	-0.001526
32.284	0.007477	-0.034027	-0.076447	0.002899	0.014496	0.00885	0.025177	-0.010986	0.31616	0.075684	-0.019379	-0.001068	0.018463	-0.23071	0.10849	-0.005798	-0.000458	-0.054321	-0.026855	0.13718	0.15045	-0.036621	0.019836	0.041504	-0.051117	-0.001373	0.12039	-0.002899	0.039825	0.034332	-0.002441	-0.000458
32.285	0.012054	-0.035095	-0.020447	-0.000153	-0.004883	0.054474	0.049591	-0.005035	0.14282	0.049591	-0.003357	0.007935	-0.33386	-0.0737	0.095978	0.002594	0	-0.094452	0.005951	0.066376	0.13855	-0.064392	0.077209	0.094299	-0.093384	-0.003204	0.033112	-0.006409	0.032043	0.000153	-0.003815	-0.009766
32.286	0.003357	-0.03891	-0.039368	0.006104	0.00824	0.021973	0.07843	0.000305	0.084229	0.047913	0.006104	0.005646	-0.31998	0.027771	-0.006409	-0.00885	0.005646	-0.063629	0.031891	-0.003204	0.002441	-0.046844	0.042267	0.033875	-0.082092	0.007172	-0.2475	-0.004883	-0.32425	-0.11383	-0.004272	-0.009003
32.287	-0.001984	-0.056305	-0.077667	0.001831	0.00061	0.099182	0.077057	0.00061	0.052032	0.010223	0.037689	-0.00061	0.54474	-0.010681	-0.037994	-0.00351	-0.005188	-0.073395	0.27466	-0.048218	-0.039063	-0.050659	0.072937	0.027161	-0.082092	0.003357	-0.31372	0.003052	-0.20844	-0.034637	-0.004425	-0.010071
32.288	0.000763	-0.045013	-0.10651	-0.003204	-0.005951	-0.021973	0.024567	0.002136	0.038147	-0.01236	0.054016	0.000153	0.60013	0.076294	0.009766	0.002289	0.012665	-0.08667	0.32776	-0.054779	-0.044861	-0.02594	0.040283	0.001526	-0.020294	0.002289	-0.26688	-0.00473	0.28534	0.087891	-0.003815	-0.021057
32.289	-0.00946	-0.031281	-0.076752	-0.003967	-0.014801	-0.010376	0.03006	0.002747	0.005493	0.020142	0.068817	-0.003815	-0.025482	0.032043	0.014343	-0.011292	0.003357	-0.093536	0.2182	-0.041351	-0.023804	-0.005188	-0.079498	0.001526	0.010223	-0.003815	-0.029755	-0.00885	0.271	0.080261	-0.005341	-0.01236
32.29	0.003815	-0.032501	-0.13779	-0.00412	-0.020142	0.06012	0.00412	0.002899	-0.001678	0.032349	0.042572	0.006104	-0.26733	-0.02533	0.016479	0.030518	0.001373	-0.068359	0.10529	-0.023346	-0.029144	-0.00061	-0.045319	-0.009613	-0.032806	-0.001373	0.20371	-0.008087	0.019379	0.11414	-0.011444	-0.011902
32.291	0.001068	-0.02182	-0.19318	0.005493	0.001068	0.11353	-0.003204	0.002747	0.053711	0.028992	0.012207	-0.001068	-0.17136	0.010834	0.027924	0.011139	0.004578	-0.062408	0.026245	-0.11429	-0.058594	-0.000458	-0.018158	0.007324	-0.029755	0.000153	0.10132	-0.008698	-0.29327	0.053558	-0.007935	-0.008392
32.292	0.003662	-0.011139	-0.14801	-0.003815	0.012665	0.097809	0.001831	0.00885	0.053558	0.019531	0.005646	0.007019	-0.039215	0.013275	-0.012665	-0.004272	0.007629	-0.056	0.055847	-0.27542	-0.096436	0.015869	0.01236	-0.023499	-0.051422	0.002594	0.014343	0.00061	0.068054	0.029755	-0.006104	-0.01358
32.293	0.000458	-0.053406	-0.013275	0.017548	0.001526	0.12909	0.02533	0.010223	0.035706	0.003662	0.026093	-0.001984	0.054169	0.069733	-0.015259	0.00412	0.009613	-0.052185	0.18875	-0.2417	-0.13565	0.007935	0.048065	-0.028229	-0.071259	0	0.055847	-0.00946	0.47119	0.09903	-0.003967	-0.010834
32.294	0.010529	-0.089569	-0.093689	0.003662	0.005188	0.10498	0.00412	-0.007172	0.025787	0.005035	-0.018311	-0.001221	-0.023041	0.13626	-0.018616	0.006866	0.00351	-0.065002	0.036774	-0.087738	-0.15411	0.011597	0.020905	-0.043182	-0.11124	0.004425	0.1442	-0.007324	-0.39047	0.12238	-0.00473	-0.011597
32.295	-0.000305	-0.076141	-0.1268	-0.003204	-0.011749	0.036316	0.034332	-0.025635	0.019379	0.02243	-0.00824	0.009003	-0.14557	0.10941	0.037231	-0.001068	0.009308	-0.0354	-0.011292	0.088654	-0.070343	-0.015869	-0.006409	-0.034943	-0.12192	-0.00061	0.070953	-0.002899	-0.42068	0.092621	-0.003662	-0.010071
32.296	0.005493	-0.067902	-0.1413	0.002747	-0.013885	0.18204	0.020752	-0.003662	0.01709	0.019226	-0.018158	0.000458	-0.041962	0.018768	-0.011444	0.003662	0.008087	-0.024719	-0.06012	0.22156	0.24048	-0.049286	-0.030975	-0.050964	-0.10483	-0.005798	0.14801	-0.005341	-0.12314	0.065308	-0.001678	-0.014191
32.297	0.000153	-0.094757	-0.044556	-0.009613	-0.006714	0.28549	0.0354	0.000916	0.010071	0.01709	-0.034485	0.003815	0.04715	-0.015564	-0.089111	0.003662	0.026093	-0.046844	0.13489	0.091248	0.17914	-0.051422	-0.013885	-0.068665	-0.10727	-0.015564	0.33508	-0.007477	0.25055	0.09491	-0.002594	-0.014954
32.298	-0.012054	-0.1442	-0.042725	0.020905	-0.028229	0.24475	0.073547	0.013275	-0.003357	0.011597	-0.021515	0.010376	0.048065	0.010223	-0.10544	-0.007019	0.023193	-0.035858	0.071411	-0.047302	0.065308	-0.043182	-0.09903	-0.11581	-0.081024	0.002441	0.61615	-0.007324	0.32516	0.097351	-0.005493	-0.003967
32.299	-0.011139	-0.17349	-0.10483	0.00946	-0.028687	-0.37933	0.085907	0.009613	-0.005493	0.009155	0.010071	-0.001373	-0.063324	0.032349	-0.045624	-0.00885	0.00061	-0.011902	0.080872	-0.097656	-0.044556	-0.004425	-0.17914	-0.076294	0.031891	-0.000305	0.7486	-0.000305	0.002441	0.047913	-0.001984	-0.008392
32.3	-0.012207	-0.15717	-0.10422	0.015869	-0.014954	-0.46463	0.072937	0.009766	0.010529	-0.000458	0.001526	0.005951	-0.052338	0.01358	-0.014343	-0.005951	0.00351	-0.034637	0.077972	0.084686	-0.11353	-0.005951	-0.18112	-0.11063	0.14984	0.005798	0.25864	-0.003204	0.067749	0.053558	0.001831	-0.007477
32.301	0.007629	-0.13382	-0.12299	0.004425	-0.009155	-0.62927	0.11673	-0.008545	-0.007477	-0.002136	0.003204	0.001831	0.1004	0.017242	0	-0.00885	0.023499	0.016937	0.15198	0.2359	-0.12207	-0.043945	-0.075073	-0.17685	0.11398	0.004272	-0.47791	-0.007172	0.33539	0.064087	-0.001984	-0.008087
32.302	-0.00412	-0.10681	-0.17883	0.010529	-0.028687	-0.29098	0.088196	-0.00412	-0.016022	0.001068	0.011902	-0.023041	-0.041962	-0.012207	0.013275	-0.001221	0.025482	-0.047302	-0.10101	0.20416	-0.21194	-0.001831	-0.046234	-0.22537	0.070496	-0.001831	-0.71381	-0.003357	0.24979	0.065765	-0.001068	-0.005798
32.303	-0.001373	-0.088043	-0.17548	0.016479	-0.037994	-0.23529	0.05722	0.005646	-0.052643	0.033875	0.006256	0.020447	0.073242	-0.032043	0.080566	-0.007324	0.021515	-0.061646	-0.33844	0.14648	-0.1741	0.002747	-0.041504	-0.28503	0.03479	0.000458	-0.30746	-0.002136	0.23041	0.039368	-0.007935	-0.014038
32.304	0.008545	-0.11246	-0.10666	0.012207	0.007629	-0.004425	-0.010376	0.002441	-0.074463	0.010071	0.019073	0.008087	0.027771	-0.061646	0.10071	-0.006409	0.015411	-0.020294	-0.23789	0.077515	-0.034027	0.015411	-0.11688	-0.16556	0.12085	-0.002289	0.077515	0.001526	0.068512	0.048218	-0.004425	-0.017242
32.305	0.009613	-0.10071	0.027161	0.001373	0.077362	0.16373	-0.016174	-0.002899	-0.014648	-0.01236	0.023651	0.003052	-0.042267	-0.046082	0.063324	-0.005341	-0.011597	0.00061	-0.24979	0.020905	0.20554	0.036316	-0.088196	-0.065155	0.087128	0.000153	-0.032349	-0.007629	-0.028381	0.12955	0.000305	-0.016937
